<mxfile host="65bd71144e" pages="2">
    <diagram name="Accept Offer" id="bFu_NQvE8ffA1HTgj55r">
        <mxGraphModel dx="1387" dy="671" grid="1" gridSize="10" guides="1" tooltips="1" connect="1" arrows="1" fold="1" page="1" pageScale="1" pageWidth="827" pageHeight="583" math="0" shadow="0">
            <root>
                <mxCell id="0"/>
                <mxCell id="1" parent="0"/>
                <mxCell id="k05JenZe04Jh9Nq_wDlC-42" value="Treasury Canister" style="rounded=1;whiteSpace=wrap;html=1;strokeColor=light-dark(#000000,#C7A52B);" parent="1" vertex="1">
                    <mxGeometry x="450" y="90" width="120" height="40" as="geometry"/>
                </mxCell>
                <mxCell id="k05JenZe04Jh9Nq_wDlC-43" value="Main Canister" style="rounded=1;whiteSpace=wrap;html=1;strokeColor=light-dark(#FFFFFF,#00FF00);" parent="1" vertex="1">
                    <mxGeometry x="300" y="90" width="120" height="40" as="geometry"/>
                </mxCell>
                <mxCell id="k05JenZe04Jh9Nq_wDlC-44" value="&amp;nbsp;Task Owner" style="rounded=1;whiteSpace=wrap;html=1;strokeColor=light-dark(#FFFFFF,#1641FF);" parent="1" vertex="1">
                    <mxGeometry x="50" y="90" width="120" height="40" as="geometry"/>
                </mxCell>
                <mxCell id="k05JenZe04Jh9Nq_wDlC-45" value="Ledger Canister" style="rounded=1;whiteSpace=wrap;html=1;strokeColor=light-dark(#000000,#4D9900);" parent="1" vertex="1">
                    <mxGeometry x="650" y="90" width="120" height="40" as="geometry"/>
                </mxCell>
                <mxCell id="k05JenZe04Jh9Nq_wDlC-46" value="" style="rounded=0;whiteSpace=wrap;html=1;fillColor=light-dark(#FFFFFF,#1641FF);" parent="1" vertex="1">
                    <mxGeometry x="100" y="170" width="20" height="190" as="geometry"/>
                </mxCell>
                <mxCell id="k05JenZe04Jh9Nq_wDlC-47" value="" style="rounded=0;whiteSpace=wrap;html=1;fillColor=light-dark(#FFFFFF,#00FF00);" parent="1" vertex="1">
                    <mxGeometry x="350" y="170" width="20" height="60" as="geometry"/>
                </mxCell>
                <mxCell id="k05JenZe04Jh9Nq_wDlC-48" value="" style="endArrow=classic;html=1;rounded=0;exitX=1.038;exitY=0.053;exitDx=0;exitDy=0;exitPerimeter=0;entryX=0.04;entryY=0.167;entryDx=0;entryDy=0;entryPerimeter=0;" parent="1" source="k05JenZe04Jh9Nq_wDlC-46" target="k05JenZe04Jh9Nq_wDlC-47" edge="1">
                    <mxGeometry width="50" height="50" relative="1" as="geometry">
                        <mxPoint x="370" y="240" as="sourcePoint"/>
                        <mxPoint x="310" y="180" as="targetPoint"/>
                    </mxGeometry>
                </mxCell>
                <mxCell id="k05JenZe04Jh9Nq_wDlC-49" value="&amp;nbsp;Accept Offer&amp;nbsp;" style="edgeLabel;html=1;align=center;verticalAlign=middle;resizable=0;points=[];" parent="k05JenZe04Jh9Nq_wDlC-48" vertex="1" connectable="0">
                    <mxGeometry x="-0.1586" y="-3" relative="1" as="geometry">
                        <mxPoint x="10" y="-3" as="offset"/>
                    </mxGeometry>
                </mxCell>
                <mxCell id="k05JenZe04Jh9Nq_wDlC-50" value="" style="endArrow=none;dashed=1;html=1;dashPattern=1 3;strokeWidth=2;rounded=0;entryX=0.5;entryY=1;entryDx=0;entryDy=0;exitX=0.5;exitY=0;exitDx=0;exitDy=0;strokeColor=light-dark(#FFFFFF,#00FF00);" parent="1" source="k05JenZe04Jh9Nq_wDlC-47" target="k05JenZe04Jh9Nq_wDlC-43" edge="1">
                    <mxGeometry width="50" height="50" relative="1" as="geometry">
                        <mxPoint x="410" y="240" as="sourcePoint"/>
                        <mxPoint x="460" y="190" as="targetPoint"/>
                    </mxGeometry>
                </mxCell>
                <mxCell id="k05JenZe04Jh9Nq_wDlC-51" value="" style="endArrow=none;dashed=1;html=1;dashPattern=1 3;strokeWidth=2;rounded=0;entryX=0.5;entryY=1;entryDx=0;entryDy=0;exitX=0.5;exitY=0;exitDx=0;exitDy=0;" parent="1" source="k05JenZe04Jh9Nq_wDlC-46" target="k05JenZe04Jh9Nq_wDlC-44" edge="1">
                    <mxGeometry width="50" height="50" relative="1" as="geometry">
                        <mxPoint x="300" y="180" as="sourcePoint"/>
                        <mxPoint x="300" y="140" as="targetPoint"/>
                    </mxGeometry>
                </mxCell>
                <mxCell id="k05JenZe04Jh9Nq_wDlC-52" value="" style="endArrow=none;dashed=1;html=1;dashPattern=1 3;strokeWidth=2;rounded=0;entryX=0.5;entryY=1;entryDx=0;entryDy=0;exitX=0.5;exitY=0;exitDx=0;exitDy=0;strokeColor=light-dark(#000000,#C7A52B);" parent="1" source="k05JenZe04Jh9Nq_wDlC-53" target="k05JenZe04Jh9Nq_wDlC-42" edge="1">
                    <mxGeometry width="50" height="50" relative="1" as="geometry">
                        <mxPoint x="510" y="170" as="sourcePoint"/>
                        <mxPoint x="420" y="190" as="targetPoint"/>
                    </mxGeometry>
                </mxCell>
                <mxCell id="k05JenZe04Jh9Nq_wDlC-53" value="" style="rounded=0;whiteSpace=wrap;html=1;strokeColor=light-dark(#000000,#C7A52B);fillColor=light-dark(#000000,#C7A52B);" parent="1" vertex="1">
                    <mxGeometry x="500" y="340" width="20" height="140" as="geometry"/>
                </mxCell>
                <mxCell id="k05JenZe04Jh9Nq_wDlC-54" value="" style="endArrow=classic;html=1;rounded=0;entryX=1.038;entryY=0.261;entryDx=0;entryDy=0;entryPerimeter=0;exitX=-0.1;exitY=0.827;exitDx=0;exitDy=0;exitPerimeter=0;" parent="1" source="k05JenZe04Jh9Nq_wDlC-47" target="k05JenZe04Jh9Nq_wDlC-46" edge="1">
                    <mxGeometry width="50" height="50" relative="1" as="geometry">
                        <mxPoint x="309" y="220" as="sourcePoint"/>
                        <mxPoint x="500" y="120" as="targetPoint"/>
                    </mxGeometry>
                </mxCell>
                <mxCell id="k05JenZe04Jh9Nq_wDlC-55" value="&amp;nbsp;Transaction Args&amp;nbsp;&lt;span style=&quot;background-color: light-dark(#ffffff, var(--ge-dark-color, #121212));&quot;&gt;to&amp;nbsp;&lt;/span&gt;&lt;div&gt;&lt;span style=&quot;background-color: light-dark(#ffffff, var(--ge-dark-color, #121212));&quot;&gt;Treasury Escrows subaccount&lt;/span&gt;&lt;/div&gt;" style="edgeLabel;html=1;align=center;verticalAlign=middle;resizable=0;points=[];" parent="k05JenZe04Jh9Nq_wDlC-54" vertex="1" connectable="0">
                    <mxGeometry x="0.0553" y="1" relative="1" as="geometry">
                        <mxPoint x="10" y="-1" as="offset"/>
                    </mxGeometry>
                </mxCell>
                <mxCell id="k05JenZe04Jh9Nq_wDlC-56" value="" style="endArrow=classic;html=1;rounded=0;exitX=1.04;exitY=0.42;exitDx=0;exitDy=0;exitPerimeter=0;entryX=0;entryY=0.178;entryDx=0;entryDy=0;entryPerimeter=0;" parent="1" edge="1">
                    <mxGeometry width="50" height="50" relative="1" as="geometry">
                        <mxPoint x="120.80000000000007" y="260.9000000000001" as="sourcePoint"/>
                        <mxPoint x="699.9999999999998" y="260" as="targetPoint"/>
                    </mxGeometry>
                </mxCell>
                <mxCell id="k05JenZe04Jh9Nq_wDlC-57" value="&amp;nbsp;Sign Transfer transaction&amp;nbsp;" style="edgeLabel;html=1;align=center;verticalAlign=middle;resizable=0;points=[];" parent="k05JenZe04Jh9Nq_wDlC-56" vertex="1" connectable="0">
                    <mxGeometry x="-0.0018" y="-1" relative="1" as="geometry">
                        <mxPoint x="-140" y="-1" as="offset"/>
                    </mxGeometry>
                </mxCell>
                <mxCell id="k05JenZe04Jh9Nq_wDlC-58" value="" style="rounded=0;whiteSpace=wrap;html=1;strokeColor=light-dark(#000000,#4D9900);fillColor=light-dark(#000000,#4D9900);" parent="1" vertex="1">
                    <mxGeometry x="700" y="240" width="20" height="50" as="geometry"/>
                </mxCell>
                <mxCell id="k05JenZe04Jh9Nq_wDlC-59" value="" style="endArrow=none;dashed=1;html=1;dashPattern=1 3;strokeWidth=2;rounded=0;entryX=0.5;entryY=1;entryDx=0;entryDy=0;exitX=0.5;exitY=0;exitDx=0;exitDy=0;strokeColor=light-dark(#000000,#4D9900);" parent="1" source="k05JenZe04Jh9Nq_wDlC-58" target="k05JenZe04Jh9Nq_wDlC-45" edge="1">
                    <mxGeometry width="50" height="50" relative="1" as="geometry">
                        <mxPoint x="709.8" y="190" as="sourcePoint"/>
                        <mxPoint x="709.8" y="150" as="targetPoint"/>
                    </mxGeometry>
                </mxCell>
                <mxCell id="k05JenZe04Jh9Nq_wDlC-60" value="" style="endArrow=none;dashed=1;html=1;dashPattern=1 3;strokeWidth=2;rounded=0;entryX=0.5;entryY=1;entryDx=0;entryDy=0;fillColor=light-dark(#FFFFFF,#14FF3F);strokeColor=light-dark(#FFFFFF,#00FF00);exitX=0.5;exitY=0;exitDx=0;exitDy=0;" parent="1" source="k05JenZe04Jh9Nq_wDlC-65" target="k05JenZe04Jh9Nq_wDlC-47" edge="1">
                    <mxGeometry width="50" height="50" relative="1" as="geometry">
                        <mxPoint x="360" y="310" as="sourcePoint"/>
                        <mxPoint x="370" y="270" as="targetPoint"/>
                    </mxGeometry>
                </mxCell>
                <mxCell id="k05JenZe04Jh9Nq_wDlC-61" value="" style="endArrow=classic;html=1;rounded=0;exitX=-0.038;exitY=0.786;exitDx=0;exitDy=0;entryX=1.067;entryY=0.578;entryDx=0;entryDy=0;entryPerimeter=0;exitPerimeter=0;" parent="1" source="k05JenZe04Jh9Nq_wDlC-58" target="k05JenZe04Jh9Nq_wDlC-46" edge="1">
                    <mxGeometry width="50" height="50" relative="1" as="geometry">
                        <mxPoint x="430" y="260" as="sourcePoint"/>
                        <mxPoint x="480" y="210" as="targetPoint"/>
                    </mxGeometry>
                </mxCell>
                <mxCell id="k05JenZe04Jh9Nq_wDlC-62" value="&amp;nbsp;Transfer response Block Index" style="edgeLabel;html=1;align=center;verticalAlign=middle;resizable=0;points=[];" parent="k05JenZe04Jh9Nq_wDlC-61" vertex="1" connectable="0">
                    <mxGeometry x="0.0343" y="1" relative="1" as="geometry">
                        <mxPoint x="-141" y="-1" as="offset"/>
                    </mxGeometry>
                </mxCell>
                <mxCell id="k05JenZe04Jh9Nq_wDlC-63" value="" style="endArrow=none;dashed=1;html=1;dashPattern=1 3;strokeWidth=2;rounded=0;entryX=0.5;entryY=1;entryDx=0;entryDy=0;strokeColor=light-dark(#000000,#4D9900);exitX=0.5;exitY=0;exitDx=0;exitDy=0;" parent="1" source="k05JenZe04Jh9Nq_wDlC-74" target="k05JenZe04Jh9Nq_wDlC-58" edge="1">
                    <mxGeometry width="50" height="50" relative="1" as="geometry">
                        <mxPoint x="710" y="300" as="sourcePoint"/>
                        <mxPoint x="490" y="270" as="targetPoint"/>
                    </mxGeometry>
                </mxCell>
                <mxCell id="k05JenZe04Jh9Nq_wDlC-64" value="&lt;font style=&quot;font-size: 18px;&quot;&gt;Accept Offer Flow&lt;/font&gt;" style="text;html=1;align=center;verticalAlign=middle;whiteSpace=wrap;rounded=0;" parent="1" vertex="1">
                    <mxGeometry x="324" y="20" width="200" height="30" as="geometry"/>
                </mxCell>
                <mxCell id="k05JenZe04Jh9Nq_wDlC-65" value="" style="rounded=0;whiteSpace=wrap;html=1;fillColor=light-dark(#FFFFFF,#00FF00);" parent="1" vertex="1">
                    <mxGeometry x="350" y="300" width="20" height="180" as="geometry"/>
                </mxCell>
                <mxCell id="k05JenZe04Jh9Nq_wDlC-66" value="" style="endArrow=classic;html=1;exitX=1;exitY=0.75;exitDx=0;exitDy=0;entryX=-0.031;entryY=0.058;entryDx=0;entryDy=0;entryPerimeter=0;" parent="1" source="k05JenZe04Jh9Nq_wDlC-46" target="k05JenZe04Jh9Nq_wDlC-65" edge="1">
                    <mxGeometry width="50" height="50" relative="1" as="geometry">
                        <mxPoint x="360" y="380" as="sourcePoint"/>
                        <mxPoint x="330" y="313" as="targetPoint"/>
                    </mxGeometry>
                </mxCell>
                <mxCell id="k05JenZe04Jh9Nq_wDlC-67" value="&lt;span style=&quot;font-family: monospace; font-size: 0px; text-align: start; background-color: rgb(27, 29, 30);&quot;&gt;%3CmxGraphModel%3E%3Croot%3E%3CmxCell%20id%3D%220%22%2F%3E%3CmxCell%20id%3D%221%22%20parent%3D%220%22%2F%3E%3CmxCell%20id%3D%222%22%20value%3D%22%22%20style%3D%22rounded%3D0%3BwhiteSpace%3Dwrap%3Bhtml%3D1%3BfillColor%3Dlight-dark(%23FFFFFF%2C%2300FF00)%3B%22%20vertex%3D%221%22%20parent%3D%221%22%3E%3CmxGeometry%20x%3D%22340%22%20y%3D%22390%22%20width%3D%2220%22%20height%3D%2270%22%20as%3D%22geometry%22%2F%3E%3C%2FmxCell%3E%3C%2Froot%3E%3C%2FmxGraphModel%3E&lt;/span&gt;" style="edgeLabel;html=1;align=center;verticalAlign=middle;resizable=0;points=[];" parent="k05JenZe04Jh9Nq_wDlC-66" vertex="1" connectable="0">
                    <mxGeometry x="0.1452" relative="1" as="geometry">
                        <mxPoint as="offset"/>
                    </mxGeometry>
                </mxCell>
                <mxCell id="k05JenZe04Jh9Nq_wDlC-68" value="&amp;nbsp;paymentNotification&amp;nbsp;" style="edgeLabel;html=1;align=center;verticalAlign=middle;resizable=0;points=[];" parent="k05JenZe04Jh9Nq_wDlC-66" vertex="1" connectable="0">
                    <mxGeometry x="-0.0652" y="1" relative="1" as="geometry">
                        <mxPoint as="offset"/>
                    </mxGeometry>
                </mxCell>
                <mxCell id="k05JenZe04Jh9Nq_wDlC-69" value="&lt;div style=&quot;color: rgb(204, 204, 204); background-color: rgb(31, 31, 31); font-family: &amp;quot;Droid Sans Mono&amp;quot;, &amp;quot;monospace&amp;quot;, monospace; font-size: 14px; line-height: 19px; white-space-collapse: preserve;&quot;&gt;&lt;br&gt;&lt;/div&gt;" style="edgeLabel;html=1;align=center;verticalAlign=middle;resizable=0;points=[];fillColor=light-dark(transparent,#DEEBFF);strokeColor=light-dark(transparent,#DEEBFF);" parent="k05JenZe04Jh9Nq_wDlC-66" vertex="1" connectable="0">
                    <mxGeometry x="-0.0434" y="-1" relative="1" as="geometry">
                        <mxPoint as="offset"/>
                    </mxGeometry>
                </mxCell>
                <mxCell id="k05JenZe04Jh9Nq_wDlC-70" value="" style="curved=1;endArrow=classic;html=1;rounded=0;exitX=1;exitY=0.25;exitDx=0;exitDy=0;entryX=1;entryY=0.75;entryDx=0;entryDy=0;" parent="1" edge="1">
                    <mxGeometry width="50" height="50" relative="1" as="geometry">
                        <mxPoint x="370" y="310" as="sourcePoint"/>
                        <mxPoint x="370" y="330" as="targetPoint"/>
                        <Array as="points">
                            <mxPoint x="410" y="310"/>
                            <mxPoint x="410" y="330"/>
                        </Array>
                    </mxGeometry>
                </mxCell>
                <mxCell id="k05JenZe04Jh9Nq_wDlC-71" value="Validate TransferArgs" style="edgeLabel;html=1;align=center;verticalAlign=middle;resizable=0;points=[];" parent="k05JenZe04Jh9Nq_wDlC-70" vertex="1" connectable="0">
                    <mxGeometry x="0.0022" y="-1" relative="1" as="geometry">
                        <mxPoint x="21" y="-10" as="offset"/>
                    </mxGeometry>
                </mxCell>
                <mxCell id="k05JenZe04Jh9Nq_wDlC-72" value="" style="endArrow=classic;html=1;exitX=1.039;exitY=0.279;exitDx=0;exitDy=0;exitPerimeter=0;" parent="1" source="k05JenZe04Jh9Nq_wDlC-65" edge="1">
                    <mxGeometry width="50" height="50" relative="1" as="geometry">
                        <mxPoint x="260" y="320" as="sourcePoint"/>
                        <mxPoint x="499" y="350" as="targetPoint"/>
                    </mxGeometry>
                </mxCell>
                <mxCell id="k05JenZe04Jh9Nq_wDlC-73" value="&amp;nbsp;createEscrow&amp;nbsp;" style="edgeLabel;html=1;align=center;verticalAlign=middle;resizable=0;points=[];" parent="k05JenZe04Jh9Nq_wDlC-72" vertex="1" connectable="0">
                    <mxGeometry x="0.0932" relative="1" as="geometry">
                        <mxPoint x="-17" as="offset"/>
                    </mxGeometry>
                </mxCell>
                <mxCell id="k05JenZe04Jh9Nq_wDlC-74" value="" style="rounded=0;whiteSpace=wrap;html=1;strokeColor=light-dark(#000000,#4D9900);fillColor=light-dark(#000000,#4D9900);" parent="1" vertex="1">
                    <mxGeometry x="700" y="340" width="20" height="70" as="geometry"/>
                </mxCell>
                <mxCell id="k05JenZe04Jh9Nq_wDlC-75" value="" style="endArrow=classic;html=1;exitX=1.067;exitY=0.142;exitDx=0;exitDy=0;entryX=-0.05;entryY=0.281;entryDx=0;entryDy=0;exitPerimeter=0;entryPerimeter=0;" parent="1" source="k05JenZe04Jh9Nq_wDlC-53" target="k05JenZe04Jh9Nq_wDlC-74" edge="1">
                    <mxGeometry width="50" height="50" relative="1" as="geometry">
                        <mxPoint x="510" y="380" as="sourcePoint"/>
                        <mxPoint x="560" y="330" as="targetPoint"/>
                    </mxGeometry>
                </mxCell>
                <mxCell id="k05JenZe04Jh9Nq_wDlC-76" value="&amp;nbsp;query_blocks&amp;nbsp;" style="edgeLabel;html=1;align=center;verticalAlign=middle;resizable=0;points=[];" parent="k05JenZe04Jh9Nq_wDlC-75" vertex="1" connectable="0">
                    <mxGeometry x="-0.0847" y="2" relative="1" as="geometry">
                        <mxPoint as="offset"/>
                    </mxGeometry>
                </mxCell>
                <mxCell id="k05JenZe04Jh9Nq_wDlC-77" value="" style="endArrow=classic;html=1;exitX=0;exitY=0.5;exitDx=0;exitDy=0;entryX=0.983;entryY=0.356;entryDx=0;entryDy=0;entryPerimeter=0;" parent="1" target="k05JenZe04Jh9Nq_wDlC-53" edge="1">
                    <mxGeometry width="50" height="50" relative="1" as="geometry">
                        <mxPoint x="700" y="390" as="sourcePoint"/>
                        <mxPoint x="540" y="390" as="targetPoint"/>
                    </mxGeometry>
                </mxCell>
                <mxCell id="k05JenZe04Jh9Nq_wDlC-78" value="&amp;nbsp;Blocks&amp;nbsp;" style="edgeLabel;html=1;align=center;verticalAlign=middle;resizable=0;points=[];" parent="k05JenZe04Jh9Nq_wDlC-77" vertex="1" connectable="0">
                    <mxGeometry x="0.2722" y="1" relative="1" as="geometry">
                        <mxPoint x="14" as="offset"/>
                    </mxGeometry>
                </mxCell>
                <mxCell id="k05JenZe04Jh9Nq_wDlC-79" value="" style="curved=1;endArrow=classic;html=1;rounded=0;exitX=1;exitY=0.25;exitDx=0;exitDy=0;entryX=1;entryY=0.75;entryDx=0;entryDy=0;" parent="1" edge="1">
                    <mxGeometry width="50" height="50" relative="1" as="geometry">
                        <mxPoint x="520" y="420" as="sourcePoint"/>
                        <mxPoint x="520" y="440" as="targetPoint"/>
                        <Array as="points">
                            <mxPoint x="560" y="420"/>
                            <mxPoint x="560" y="440"/>
                        </Array>
                    </mxGeometry>
                </mxCell>
                <mxCell id="k05JenZe04Jh9Nq_wDlC-80" value="Verify Transaction" style="edgeLabel;html=1;align=center;verticalAlign=middle;resizable=0;points=[];" parent="k05JenZe04Jh9Nq_wDlC-79" vertex="1" connectable="0">
                    <mxGeometry x="0.0022" y="-1" relative="1" as="geometry">
                        <mxPoint x="41" y="-10" as="offset"/>
                    </mxGeometry>
                </mxCell>
                <mxCell id="k05JenZe04Jh9Nq_wDlC-81" value="" style="endArrow=classic;html=1;exitX=-0.02;exitY=0.785;exitDx=0;exitDy=0;exitPerimeter=0;entryX=1.038;entryY=0.835;entryDx=0;entryDy=0;entryPerimeter=0;" parent="1" source="k05JenZe04Jh9Nq_wDlC-53" target="k05JenZe04Jh9Nq_wDlC-65" edge="1">
                    <mxGeometry width="50" height="50" relative="1" as="geometry">
                        <mxPoint x="410" y="470" as="sourcePoint"/>
                        <mxPoint x="390" y="450" as="targetPoint"/>
                    </mxGeometry>
                </mxCell>
                <mxCell id="k05JenZe04Jh9Nq_wDlC-82" value="&amp;nbsp;Escrow Index&amp;nbsp;" style="edgeLabel;html=1;align=center;verticalAlign=middle;resizable=0;points=[];" parent="k05JenZe04Jh9Nq_wDlC-81" vertex="1" connectable="0">
                    <mxGeometry x="0.0036" relative="1" as="geometry">
                        <mxPoint as="offset"/>
                    </mxGeometry>
                </mxCell>
            </root>
        </mxGraphModel>
    </diagram>
    <diagram id="-5rHNMYgdhf-u7cslc5i" name="Delivery Task Flow">
        <mxGraphModel dx="1387" dy="491" grid="1" gridSize="10" guides="1" tooltips="1" connect="1" arrows="1" fold="1" page="1" pageScale="1" pageWidth="827" pageHeight="583" math="0" shadow="0">
            <root>
                <mxCell id="0"/>
                <mxCell id="1" parent="0"/>
                <mxCell id="PoSCY5o4h32BP8ZAVHjp-1" value="Treasury Canister" style="rounded=1;whiteSpace=wrap;html=1;strokeColor=light-dark(#000000,#C7A52B);points=[[0,0,0,0,0],[0,0.25,0,0,0],[0,0.5,0,0,0],[0,0.75,0,0,0],[0,1,0,0,0],[0.25,0,0,0,0],[0.25,1,0,0,0],[0.5,0,0,0,0],[0.5,1,0,0,0],[0.75,0,0,0,0],[0.75,1,0,0,0],[1,0,0,0,0],[1,0.25,0,0,0],[1,0.5,0,0,0],[1,0.75,0,0,0],[1,1,0,0,0]];" parent="1" vertex="1">
                    <mxGeometry x="534" y="80" width="120" height="40" as="geometry"/>
                </mxCell>
                <mxCell id="PoSCY5o4h32BP8ZAVHjp-2" value="Main Canister" style="rounded=1;whiteSpace=wrap;html=1;strokeColor=light-dark(#FFFFFF,#00FF00);" parent="1" vertex="1">
                    <mxGeometry x="371.81" y="80" width="120" height="40" as="geometry"/>
                </mxCell>
                <mxCell id="PoSCY5o4h32BP8ZAVHjp-3" value="Assigner User" style="rounded=1;whiteSpace=wrap;html=1;strokeColor=light-dark(#FFFFFF,#1641FF);" parent="1" vertex="1">
                    <mxGeometry x="194" y="80" width="120" height="40" as="geometry"/>
                </mxCell>
                <mxCell id="PoSCY5o4h32BP8ZAVHjp-4" value="Ledger Canister" style="rounded=1;whiteSpace=wrap;html=1;strokeColor=light-dark(#000000,#4D9900);" parent="1" vertex="1">
                    <mxGeometry x="694" y="80" width="120" height="40" as="geometry"/>
                </mxCell>
                <mxCell id="PoSCY5o4h32BP8ZAVHjp-5" value="" style="rounded=0;whiteSpace=wrap;html=1;fillColor=light-dark(#FFFFFF,#1641FF);" parent="1" vertex="1">
                    <mxGeometry x="244" y="140" width="20" height="40" as="geometry"/>
                </mxCell>
                <mxCell id="PoSCY5o4h32BP8ZAVHjp-6" value="" style="rounded=0;whiteSpace=wrap;html=1;fillColor=light-dark(#FFFFFF,#00FF00);" parent="1" vertex="1">
                    <mxGeometry x="421.81" y="140" width="20" height="30" as="geometry"/>
                </mxCell>
                <mxCell id="PoSCY5o4h32BP8ZAVHjp-7" value="" style="endArrow=classic;html=1;rounded=0;exitX=1.016;exitY=0.238;exitDx=0;exitDy=0;exitPerimeter=0;entryX=-0.014;entryY=0.336;entryDx=0;entryDy=0;entryPerimeter=0;" parent="1" source="PoSCY5o4h32BP8ZAVHjp-5" target="PoSCY5o4h32BP8ZAVHjp-6" edge="1">
                    <mxGeometry width="50" height="50" relative="1" as="geometry">
                        <mxPoint x="266" y="150" as="sourcePoint"/>
                        <mxPoint x="421" y="150" as="targetPoint"/>
                    </mxGeometry>
                </mxCell>
                <mxCell id="PoSCY5o4h32BP8ZAVHjp-8" value="&amp;nbsp;Delivery Task&amp;nbsp;" style="edgeLabel;html=1;align=center;verticalAlign=middle;resizable=0;points=[];" parent="PoSCY5o4h32BP8ZAVHjp-7" vertex="1" connectable="0">
                    <mxGeometry x="-0.1586" y="-3" relative="1" as="geometry">
                        <mxPoint x="4" y="-3" as="offset"/>
                    </mxGeometry>
                </mxCell>
                <mxCell id="PoSCY5o4h32BP8ZAVHjp-9" value="" style="endArrow=none;dashed=1;html=1;dashPattern=1 3;strokeWidth=2;rounded=0;entryX=0.5;entryY=1;entryDx=0;entryDy=0;exitX=0.5;exitY=0;exitDx=0;exitDy=0;strokeColor=light-dark(#FFFFFF,#00FF00);" parent="1" source="PoSCY5o4h32BP8ZAVHjp-6" target="PoSCY5o4h32BP8ZAVHjp-2" edge="1">
                    <mxGeometry width="50" height="50" relative="1" as="geometry">
                        <mxPoint x="481.81" y="230" as="sourcePoint"/>
                        <mxPoint x="531.81" y="180" as="targetPoint"/>
                    </mxGeometry>
                </mxCell>
                <mxCell id="PoSCY5o4h32BP8ZAVHjp-10" value="" style="endArrow=none;dashed=1;html=1;dashPattern=1 3;strokeWidth=2;rounded=0;entryX=0.5;entryY=1;entryDx=0;entryDy=0;exitX=0.5;exitY=0;exitDx=0;exitDy=0;" parent="1" source="PoSCY5o4h32BP8ZAVHjp-5" target="PoSCY5o4h32BP8ZAVHjp-3" edge="1">
                    <mxGeometry width="50" height="50" relative="1" as="geometry">
                        <mxPoint x="444" y="170" as="sourcePoint"/>
                        <mxPoint x="444" y="130" as="targetPoint"/>
                    </mxGeometry>
                </mxCell>
                <mxCell id="PoSCY5o4h32BP8ZAVHjp-11" value="" style="endArrow=none;dashed=1;html=1;dashPattern=1 3;strokeWidth=2;rounded=0;entryX=0.5;entryY=1;entryDx=0;entryDy=0;exitX=0.5;exitY=0;exitDx=0;exitDy=0;strokeColor=light-dark(#000000,#C7A52B);" parent="1" source="zQrTksdY_Bda0OnKajQu-25" target="PoSCY5o4h32BP8ZAVHjp-1" edge="1">
                    <mxGeometry width="50" height="50" relative="1" as="geometry">
                        <mxPoint x="594" y="160" as="sourcePoint"/>
                        <mxPoint x="504" y="180" as="targetPoint"/>
                    </mxGeometry>
                </mxCell>
                <mxCell id="PoSCY5o4h32BP8ZAVHjp-12" value="" style="rounded=0;whiteSpace=wrap;html=1;strokeColor=light-dark(#000000,#C7A52B);fillColor=light-dark(#000000,#C7A52B);" parent="1" vertex="1">
                    <mxGeometry x="584" y="440" width="20" height="130" as="geometry"/>
                </mxCell>
                <mxCell id="PoSCY5o4h32BP8ZAVHjp-21" value="" style="rounded=0;whiteSpace=wrap;html=1;strokeColor=light-dark(#000000,#4D9900);fillColor=light-dark(#000000,#4D9900);" parent="1" vertex="1">
                    <mxGeometry x="744" y="490" width="20" height="70" as="geometry"/>
                </mxCell>
                <mxCell id="PoSCY5o4h32BP8ZAVHjp-22" value="" style="endArrow=none;dashed=1;html=1;dashPattern=1 3;strokeWidth=2;rounded=0;entryX=0.5;entryY=1;entryDx=0;entryDy=0;exitX=0.5;exitY=0;exitDx=0;exitDy=0;strokeColor=light-dark(#000000,#4D9900);" parent="1" source="PoSCY5o4h32BP8ZAVHjp-21" target="PoSCY5o4h32BP8ZAVHjp-4" edge="1">
                    <mxGeometry width="50" height="50" relative="1" as="geometry">
                        <mxPoint x="753.8" y="180" as="sourcePoint"/>
                        <mxPoint x="753.8" y="140" as="targetPoint"/>
                    </mxGeometry>
                </mxCell>
                <mxCell id="PoSCY5o4h32BP8ZAVHjp-23" value="" style="endArrow=none;dashed=1;html=1;dashPattern=1 3;strokeWidth=2;rounded=0;entryX=0.5;entryY=1;entryDx=0;entryDy=0;exitX=0.5;exitY=0;exitDx=0;exitDy=0;fillColor=light-dark(#FFFFFF,#14FF3F);strokeColor=light-dark(#FFFFFF,#00FF00);" parent="1" source="PoSCY5o4h32BP8ZAVHjp-26" target="PoSCY5o4h32BP8ZAVHjp-6" edge="1">
                    <mxGeometry width="50" height="50" relative="1" as="geometry">
                        <mxPoint x="431.80999999999995" y="180" as="sourcePoint"/>
                        <mxPoint x="441.81" y="240" as="targetPoint"/>
                    </mxGeometry>
                </mxCell>
                <mxCell id="PoSCY5o4h32BP8ZAVHjp-26" value="" style="rounded=0;whiteSpace=wrap;html=1;fillColor=light-dark(#FFFFFF,#00FF00);" parent="1" vertex="1">
                    <mxGeometry x="421.81" y="200" width="20" height="40" as="geometry"/>
                </mxCell>
                <mxCell id="PoSCY5o4h32BP8ZAVHjp-34" value="&lt;span style=&quot;font-size: 18px;&quot;&gt;Delivery Task Flow&amp;nbsp;&lt;/span&gt;&lt;span style=&quot;font-size: 18px; background-color: transparent; color: light-dark(rgb(0, 0, 0), rgb(255, 255, 255));&quot;&gt;happy path&amp;nbsp;&lt;/span&gt;&lt;div&gt;&lt;span style=&quot;font-size: 18px; background-color: transparent; color: light-dark(rgb(0, 0, 0), rgb(255, 255, 255));&quot;&gt;and withdrawal to external Account&lt;/span&gt;&lt;/div&gt;" style="text;html=1;align=center;verticalAlign=middle;whiteSpace=wrap;rounded=0;" parent="1" vertex="1">
                    <mxGeometry x="250" y="20" width="307" height="30" as="geometry"/>
                </mxCell>
                <mxCell id="PoSCY5o4h32BP8ZAVHjp-36" value="" style="endArrow=none;dashed=1;html=1;dashPattern=1 3;strokeWidth=2;rounded=0;exitX=0.5;exitY=0;exitDx=0;exitDy=0;entryX=0.5;entryY=1;entryDx=0;entryDy=0;" parent="1" source="zQrTksdY_Bda0OnKajQu-10" target="PoSCY5o4h32BP8ZAVHjp-26" edge="1">
                    <mxGeometry width="50" height="50" relative="1" as="geometry">
                        <mxPoint x="431.80999999999995" y="340" as="sourcePoint"/>
                        <mxPoint x="551.81" y="310" as="targetPoint"/>
                    </mxGeometry>
                </mxCell>
                <mxCell id="PoSCY5o4h32BP8ZAVHjp-37" value="" style="curved=1;endArrow=classic;html=1;rounded=0;entryX=1;entryY=0.75;entryDx=0;entryDy=0;" parent="1" edge="1">
                    <mxGeometry width="50" height="50" relative="1" as="geometry">
                        <mxPoint x="604" y="450" as="sourcePoint"/>
                        <mxPoint x="604" y="480" as="targetPoint"/>
                        <Array as="points">
                            <mxPoint x="644" y="450"/>
                            <mxPoint x="646.19" y="480"/>
                        </Array>
                    </mxGeometry>
                </mxCell>
                <mxCell id="zQrTksdY_Bda0OnKajQu-37" value="Verify request" style="edgeLabel;html=1;align=center;verticalAlign=middle;resizable=0;points=[];" parent="PoSCY5o4h32BP8ZAVHjp-37" vertex="1" connectable="0">
                    <mxGeometry x="-0.0633" y="-1" relative="1" as="geometry">
                        <mxPoint x="20" y="-18" as="offset"/>
                    </mxGeometry>
                </mxCell>
                <mxCell id="zQrTksdY_Bda0OnKajQu-1" value="Task Owner" style="rounded=1;whiteSpace=wrap;html=1;strokeColor=light-dark(#FFFFFF,#1641FF);" parent="1" vertex="1">
                    <mxGeometry x="14" y="80" width="120" height="40" as="geometry"/>
                </mxCell>
                <mxCell id="zQrTksdY_Bda0OnKajQu-2" value="" style="rounded=0;whiteSpace=wrap;html=1;fillColor=light-dark(#FFFFFF,#1641FF);" parent="1" vertex="1">
                    <mxGeometry x="64" y="160" width="20" height="190" as="geometry"/>
                </mxCell>
                <mxCell id="zQrTksdY_Bda0OnKajQu-4" value="" style="endArrow=none;dashed=1;html=1;dashPattern=1 3;strokeWidth=2;rounded=0;entryX=0.5;entryY=1;entryDx=0;entryDy=0;exitX=0.5;exitY=0;exitDx=0;exitDy=0;" parent="1" source="zQrTksdY_Bda0OnKajQu-2" target="zQrTksdY_Bda0OnKajQu-1" edge="1">
                    <mxGeometry width="50" height="50" relative="1" as="geometry">
                        <mxPoint x="264" y="170" as="sourcePoint"/>
                        <mxPoint x="264" y="130" as="targetPoint"/>
                    </mxGeometry>
                </mxCell>
                <mxCell id="zQrTksdY_Bda0OnKajQu-6" value="" style="endArrow=classic;html=1;rounded=0;exitX=1;exitY=0.25;exitDx=0;exitDy=0;entryX=0.004;entryY=0.218;entryDx=0;entryDy=0;entryPerimeter=0;" parent="1" source="zQrTksdY_Bda0OnKajQu-2" target="PoSCY5o4h32BP8ZAVHjp-26" edge="1">
                    <mxGeometry width="50" height="50" relative="1" as="geometry">
                        <mxPoint x="284" y="180" as="sourcePoint"/>
                        <mxPoint x="414" y="210" as="targetPoint"/>
                    </mxGeometry>
                </mxCell>
                <mxCell id="zQrTksdY_Bda0OnKajQu-7" value="&amp;nbsp;Pull Notifications&amp;nbsp;" style="edgeLabel;html=1;align=center;verticalAlign=middle;resizable=0;points=[];" parent="zQrTksdY_Bda0OnKajQu-6" vertex="1" connectable="0">
                    <mxGeometry x="-0.0198" y="1" relative="1" as="geometry">
                        <mxPoint x="-76" as="offset"/>
                    </mxGeometry>
                </mxCell>
                <mxCell id="zQrTksdY_Bda0OnKajQu-8" value="" style="endArrow=classic;html=1;rounded=0;entryX=1.023;entryY=0.366;entryDx=0;entryDy=0;entryPerimeter=0;exitX=0.041;exitY=0.741;exitDx=0;exitDy=0;exitPerimeter=0;" parent="1" source="PoSCY5o4h32BP8ZAVHjp-26" target="zQrTksdY_Bda0OnKajQu-2" edge="1">
                    <mxGeometry width="50" height="50" relative="1" as="geometry">
                        <mxPoint x="384" y="240" as="sourcePoint"/>
                        <mxPoint x="344" y="160" as="targetPoint"/>
                    </mxGeometry>
                </mxCell>
                <mxCell id="zQrTksdY_Bda0OnKajQu-9" value="&amp;nbsp;Task Complete Notification&amp;nbsp;" style="edgeLabel;html=1;align=center;verticalAlign=middle;resizable=0;points=[];" parent="zQrTksdY_Bda0OnKajQu-8" vertex="1" connectable="0">
                    <mxGeometry x="-0.0003" y="1" relative="1" as="geometry">
                        <mxPoint x="-80" y="-1" as="offset"/>
                    </mxGeometry>
                </mxCell>
                <mxCell id="zQrTksdY_Bda0OnKajQu-13" value="" style="endArrow=classic;html=1;rounded=0;exitX=1.014;exitY=0.636;exitDx=0;exitDy=0;exitPerimeter=0;entryX=0.043;entryY=0.169;entryDx=0;entryDy=0;entryPerimeter=0;" parent="1" source="zQrTksdY_Bda0OnKajQu-2" target="zQrTksdY_Bda0OnKajQu-10" edge="1">
                    <mxGeometry width="50" height="50" relative="1" as="geometry">
                        <mxPoint x="324" y="280" as="sourcePoint"/>
                        <mxPoint x="374" y="230" as="targetPoint"/>
                    </mxGeometry>
                </mxCell>
                <mxCell id="zQrTksdY_Bda0OnKajQu-14" value="&amp;nbsp;Accept delivery&amp;nbsp;" style="edgeLabel;html=1;align=center;verticalAlign=middle;resizable=0;points=[];" parent="zQrTksdY_Bda0OnKajQu-13" vertex="1" connectable="0">
                    <mxGeometry x="-0.3226" relative="1" as="geometry">
                        <mxPoint x="-25" y="-1" as="offset"/>
                    </mxGeometry>
                </mxCell>
                <mxCell id="zQrTksdY_Bda0OnKajQu-15" value="" style="endArrow=none;dashed=1;html=1;dashPattern=1 3;strokeWidth=2;rounded=0;entryX=0.5;entryY=1;entryDx=0;entryDy=0;exitX=0.5;exitY=0;exitDx=0;exitDy=0;" parent="1" source="XK-UsVdFbHBo1NIAttJW-3" target="PoSCY5o4h32BP8ZAVHjp-5" edge="1">
                    <mxGeometry width="50" height="50" relative="1" as="geometry">
                        <mxPoint x="254" y="300" as="sourcePoint"/>
                        <mxPoint x="404" y="330" as="targetPoint"/>
                    </mxGeometry>
                </mxCell>
                <mxCell id="zQrTksdY_Bda0OnKajQu-10" value="" style="rounded=0;whiteSpace=wrap;html=1;fillColor=light-dark(#FFFFFF,#00FF00);" parent="1" vertex="1">
                    <mxGeometry x="421.81" y="265" width="20" height="85" as="geometry"/>
                </mxCell>
                <mxCell id="zQrTksdY_Bda0OnKajQu-19" value="" style="rounded=0;whiteSpace=wrap;html=1;fillColor=light-dark(#FFFFFF,#1641FF);" parent="1" vertex="1">
                    <mxGeometry x="244" y="380" width="20" height="40" as="geometry"/>
                </mxCell>
                <mxCell id="zQrTksdY_Bda0OnKajQu-21" value="" style="endArrow=classic;html=1;rounded=0;exitX=1;exitY=0.25;exitDx=0;exitDy=0;entryX=0;entryY=0.25;entryDx=0;entryDy=0;" parent="1" source="zQrTksdY_Bda0OnKajQu-19" target="XK-UsVdFbHBo1NIAttJW-10" edge="1">
                    <mxGeometry width="50" height="50" relative="1" as="geometry">
                        <mxPoint x="384" y="390" as="sourcePoint"/>
                        <mxPoint x="421.80999999999995" y="390" as="targetPoint"/>
                    </mxGeometry>
                </mxCell>
                <mxCell id="zQrTksdY_Bda0OnKajQu-22" value="&amp;nbsp;Get Balance&amp;nbsp;" style="edgeLabel;html=1;align=center;verticalAlign=middle;resizable=0;points=[];" parent="zQrTksdY_Bda0OnKajQu-21" vertex="1" connectable="0">
                    <mxGeometry x="-0.1628" y="-1" relative="1" as="geometry">
                        <mxPoint x="-8" as="offset"/>
                    </mxGeometry>
                </mxCell>
                <mxCell id="zQrTksdY_Bda0OnKajQu-23" value="" style="endArrow=classic;html=1;rounded=0;entryX=0.005;entryY=0.084;entryDx=0;entryDy=0;entryPerimeter=0;exitX=1;exitY=0.075;exitDx=0;exitDy=0;exitPerimeter=0;" parent="1" source="zQrTksdY_Bda0OnKajQu-35" target="PoSCY5o4h32BP8ZAVHjp-12" edge="1">
                    <mxGeometry width="50" height="50" relative="1" as="geometry">
                        <mxPoint x="274" y="450" as="sourcePoint"/>
                        <mxPoint x="524" y="310" as="targetPoint"/>
                    </mxGeometry>
                </mxCell>
                <mxCell id="zQrTksdY_Bda0OnKajQu-24" value="&amp;nbsp;Request Withdrawal to&amp;nbsp;" style="edgeLabel;html=1;align=center;verticalAlign=middle;resizable=0;points=[];" parent="zQrTksdY_Bda0OnKajQu-23" vertex="1" connectable="0">
                    <mxGeometry x="-0.1013" y="-1" relative="1" as="geometry">
                        <mxPoint as="offset"/>
                    </mxGeometry>
                </mxCell>
                <mxCell id="zQrTksdY_Bda0OnKajQu-25" value="" style="rounded=0;whiteSpace=wrap;html=1;strokeColor=light-dark(#000000,#C7A52B);fillColor=light-dark(#000000,#C7A52B);" parent="1" vertex="1">
                    <mxGeometry x="584" y="275" width="20" height="40" as="geometry"/>
                </mxCell>
                <mxCell id="zQrTksdY_Bda0OnKajQu-26" value="" style="endArrow=classic;html=1;rounded=0;exitX=0.956;exitY=0.252;exitDx=0;exitDy=0;entryX=-0.024;entryY=0.124;entryDx=0;entryDy=0;entryPerimeter=0;exitPerimeter=0;" parent="1" edge="1">
                    <mxGeometry width="50" height="50" relative="1" as="geometry">
                        <mxPoint x="441.4100000000001" y="280.16" as="sourcePoint"/>
                        <mxPoint x="584" y="280.00000000000006" as="targetPoint"/>
                    </mxGeometry>
                </mxCell>
                <mxCell id="zQrTksdY_Bda0OnKajQu-27" value="&amp;nbsp;Release Escrow&amp;nbsp;" style="edgeLabel;html=1;align=center;verticalAlign=middle;resizable=0;points=[];" parent="zQrTksdY_Bda0OnKajQu-26" vertex="1" connectable="0">
                    <mxGeometry x="-0.1013" y="-1" relative="1" as="geometry">
                        <mxPoint x="8" y="-1" as="offset"/>
                    </mxGeometry>
                </mxCell>
                <mxCell id="zQrTksdY_Bda0OnKajQu-29" value="" style="endArrow=classic;html=1;rounded=0;exitX=-0.031;exitY=0.872;exitDx=0;exitDy=0;entryX=1.027;entryY=0.529;entryDx=0;entryDy=0;exitPerimeter=0;entryPerimeter=0;" parent="1" source="zQrTksdY_Bda0OnKajQu-25" target="zQrTksdY_Bda0OnKajQu-10" edge="1">
                    <mxGeometry width="50" height="50" relative="1" as="geometry">
                        <mxPoint x="474" y="350" as="sourcePoint"/>
                        <mxPoint x="524" y="300" as="targetPoint"/>
                    </mxGeometry>
                </mxCell>
                <mxCell id="zQrTksdY_Bda0OnKajQu-30" value="&amp;nbsp;response&amp;nbsp;" style="edgeLabel;html=1;align=center;verticalAlign=middle;resizable=0;points=[];" parent="zQrTksdY_Bda0OnKajQu-29" vertex="1" connectable="0">
                    <mxGeometry x="0.1999" y="-1" relative="1" as="geometry">
                        <mxPoint as="offset"/>
                    </mxGeometry>
                </mxCell>
                <mxCell id="zQrTksdY_Bda0OnKajQu-31" value="" style="endArrow=classic;html=1;rounded=0;exitX=0;exitY=0.75;exitDx=0;exitDy=0;entryX=1;entryY=0.75;entryDx=0;entryDy=0;" parent="1" source="XK-UsVdFbHBo1NIAttJW-10" target="zQrTksdY_Bda0OnKajQu-19" edge="1">
                    <mxGeometry width="50" height="50" relative="1" as="geometry">
                        <mxPoint x="420.1300000000001" y="409.31999999999994" as="sourcePoint"/>
                        <mxPoint x="474" y="330" as="targetPoint"/>
                    </mxGeometry>
                </mxCell>
                <mxCell id="zQrTksdY_Bda0OnKajQu-33" value="&amp;nbsp;Balance&amp;nbsp;" style="edgeLabel;html=1;align=center;verticalAlign=middle;resizable=0;points=[];" parent="zQrTksdY_Bda0OnKajQu-31" vertex="1" connectable="0">
                    <mxGeometry x="-0.0026" relative="1" as="geometry">
                        <mxPoint x="-44" as="offset"/>
                    </mxGeometry>
                </mxCell>
                <mxCell id="zQrTksdY_Bda0OnKajQu-34" value="" style="endArrow=none;dashed=1;html=1;dashPattern=1 3;strokeWidth=2;rounded=0;exitX=0.5;exitY=0;exitDx=0;exitDy=0;entryX=0.5;entryY=1;entryDx=0;entryDy=0;" parent="1" source="zQrTksdY_Bda0OnKajQu-35" target="zQrTksdY_Bda0OnKajQu-19" edge="1">
                    <mxGeometry width="50" height="50" relative="1" as="geometry">
                        <mxPoint x="424" y="420" as="sourcePoint"/>
                        <mxPoint x="474" y="370" as="targetPoint"/>
                    </mxGeometry>
                </mxCell>
                <mxCell id="zQrTksdY_Bda0OnKajQu-35" value="" style="rounded=0;whiteSpace=wrap;html=1;fillColor=light-dark(#FFFFFF,#1641FF);" parent="1" vertex="1">
                    <mxGeometry x="244" y="440" width="20" height="130" as="geometry"/>
                </mxCell>
                <mxCell id="zQrTksdY_Bda0OnKajQu-36" value="" style="endArrow=none;dashed=1;html=1;dashPattern=1 3;strokeWidth=2;rounded=0;entryX=0.5;entryY=1;entryDx=0;entryDy=0;exitX=0.5;exitY=0;exitDx=0;exitDy=0;strokeColor=light-dark(#000000,#C7A52B);" parent="1" source="XK-UsVdFbHBo1NIAttJW-10" target="zQrTksdY_Bda0OnKajQu-25" edge="1">
                    <mxGeometry width="50" height="50" relative="1" as="geometry">
                        <mxPoint x="604" y="435" as="sourcePoint"/>
                        <mxPoint x="604" y="280" as="targetPoint"/>
                    </mxGeometry>
                </mxCell>
                <mxCell id="zQrTksdY_Bda0OnKajQu-38" value="" style="endArrow=classic;html=1;rounded=0;entryX=-0.06;entryY=0.149;entryDx=0;entryDy=0;entryPerimeter=0;exitX=1.025;exitY=0.462;exitDx=0;exitDy=0;exitPerimeter=0;" parent="1" source="PoSCY5o4h32BP8ZAVHjp-12" target="PoSCY5o4h32BP8ZAVHjp-21" edge="1">
                    <mxGeometry width="50" height="50" relative="1" as="geometry">
                        <mxPoint x="594" y="530" as="sourcePoint"/>
                        <mxPoint x="644" y="480" as="targetPoint"/>
                    </mxGeometry>
                </mxCell>
                <mxCell id="zQrTksdY_Bda0OnKajQu-39" value="&amp;nbsp;Transfer to&amp;nbsp;" style="edgeLabel;html=1;align=center;verticalAlign=middle;resizable=0;points=[];" parent="zQrTksdY_Bda0OnKajQu-38" vertex="1" connectable="0">
                    <mxGeometry x="0.034" y="1" relative="1" as="geometry">
                        <mxPoint as="offset"/>
                    </mxGeometry>
                </mxCell>
                <mxCell id="zQrTksdY_Bda0OnKajQu-40" value="" style="endArrow=classic;html=1;rounded=0;exitX=-0.004;exitY=0.713;exitDx=0;exitDy=0;entryX=1.087;entryY=0.767;entryDx=0;entryDy=0;entryPerimeter=0;exitPerimeter=0;" parent="1" source="PoSCY5o4h32BP8ZAVHjp-21" target="PoSCY5o4h32BP8ZAVHjp-12" edge="1">
                    <mxGeometry width="50" height="50" relative="1" as="geometry">
                        <mxPoint x="694" y="440" as="sourcePoint"/>
                        <mxPoint x="614" y="543" as="targetPoint"/>
                    </mxGeometry>
                </mxCell>
                <mxCell id="zQrTksdY_Bda0OnKajQu-41" value="&amp;nbsp;Transaction response&amp;nbsp;" style="edgeLabel;html=1;align=center;verticalAlign=middle;resizable=0;points=[];" parent="zQrTksdY_Bda0OnKajQu-40" vertex="1" connectable="0">
                    <mxGeometry x="-0.0997" relative="1" as="geometry">
                        <mxPoint as="offset"/>
                    </mxGeometry>
                </mxCell>
                <mxCell id="zQrTksdY_Bda0OnKajQu-42" value="" style="endArrow=classic;html=1;rounded=0;exitX=-0.003;exitY=0.918;exitDx=0;exitDy=0;exitPerimeter=0;entryX=1.015;entryY=0.923;entryDx=0;entryDy=0;entryPerimeter=0;" parent="1" source="PoSCY5o4h32BP8ZAVHjp-12" target="zQrTksdY_Bda0OnKajQu-35" edge="1">
                    <mxGeometry width="50" height="50" relative="1" as="geometry">
                        <mxPoint x="694" y="480" as="sourcePoint"/>
                        <mxPoint x="744" y="430" as="targetPoint"/>
                    </mxGeometry>
                </mxCell>
                <mxCell id="zQrTksdY_Bda0OnKajQu-43" value="&amp;nbsp;Withdrawal response&amp;nbsp;" style="edgeLabel;html=1;align=center;verticalAlign=middle;resizable=0;points=[];" parent="zQrTksdY_Bda0OnKajQu-42" vertex="1" connectable="0">
                    <mxGeometry x="-0.0466" relative="1" as="geometry">
                        <mxPoint as="offset"/>
                    </mxGeometry>
                </mxCell>
                <mxCell id="XK-UsVdFbHBo1NIAttJW-1" value="" style="curved=1;endArrow=classic;html=1;rounded=0;entryX=1;entryY=0.75;entryDx=0;entryDy=0;" parent="1" edge="1">
                    <mxGeometry width="50" height="50" relative="1" as="geometry">
                        <mxPoint x="604" y="280" as="sourcePoint"/>
                        <mxPoint x="604" y="310" as="targetPoint"/>
                        <Array as="points">
                            <mxPoint x="644" y="280"/>
                            <mxPoint x="646.19" y="310"/>
                        </Array>
                    </mxGeometry>
                </mxCell>
                <mxCell id="XK-UsVdFbHBo1NIAttJW-2" value="Apply Platform Fee" style="edgeLabel;html=1;align=center;verticalAlign=middle;resizable=0;points=[];" parent="XK-UsVdFbHBo1NIAttJW-1" vertex="1" connectable="0">
                    <mxGeometry x="-0.0633" y="-1" relative="1" as="geometry">
                        <mxPoint x="36" y="-17" as="offset"/>
                    </mxGeometry>
                </mxCell>
                <mxCell id="XK-UsVdFbHBo1NIAttJW-3" value="" style="rounded=0;whiteSpace=wrap;html=1;fillColor=light-dark(#FFFFFF,#1641FF);" parent="1" vertex="1">
                    <mxGeometry x="244" y="300" width="20" height="50" as="geometry"/>
                </mxCell>
                <mxCell id="XK-UsVdFbHBo1NIAttJW-4" value="" style="endArrow=none;dashed=1;html=1;dashPattern=1 3;strokeWidth=2;rounded=0;exitX=0.5;exitY=0;exitDx=0;exitDy=0;entryX=0.5;entryY=1;entryDx=0;entryDy=0;" parent="1" source="zQrTksdY_Bda0OnKajQu-19" target="XK-UsVdFbHBo1NIAttJW-3" edge="1">
                    <mxGeometry width="50" height="50" relative="1" as="geometry">
                        <mxPoint x="264" y="302" as="sourcePoint"/>
                        <mxPoint x="280" y="340" as="targetPoint"/>
                    </mxGeometry>
                </mxCell>
                <mxCell id="XK-UsVdFbHBo1NIAttJW-5" value="" style="endArrow=classic;html=1;rounded=0;exitX=1;exitY=0.25;exitDx=0;exitDy=0;entryX=0.005;entryY=0.589;entryDx=0;entryDy=0;entryPerimeter=0;" parent="1" target="zQrTksdY_Bda0OnKajQu-10" edge="1">
                    <mxGeometry width="50" height="50" relative="1" as="geometry">
                        <mxPoint x="264" y="315.38" as="sourcePoint"/>
                        <mxPoint x="421.57000000000005" y="315.005" as="targetPoint"/>
                    </mxGeometry>
                </mxCell>
                <mxCell id="XK-UsVdFbHBo1NIAttJW-6" value="&amp;nbsp;Pull Notifications&amp;nbsp;" style="edgeLabel;html=1;align=center;verticalAlign=middle;resizable=0;points=[];" parent="XK-UsVdFbHBo1NIAttJW-5" vertex="1" connectable="0">
                    <mxGeometry x="-0.0198" y="1" relative="1" as="geometry">
                        <mxPoint x="-1" y="-7" as="offset"/>
                    </mxGeometry>
                </mxCell>
                <mxCell id="XK-UsVdFbHBo1NIAttJW-7" value="&amp;nbsp; &amp;nbsp;Delivery &lt;font color=&quot;#121212&quot;&gt;accepted&lt;/font&gt;&amp;nbsp;" style="edgeLabel;html=1;align=center;verticalAlign=middle;resizable=0;points=[];" parent="1" vertex="1" connectable="0">
                    <mxGeometry x="339.9989094270949" y="329.99960580571235" as="geometry"/>
                </mxCell>
                <mxCell id="XK-UsVdFbHBo1NIAttJW-8" value="" style="endArrow=classic;html=1;rounded=0;entryX=1.006;entryY=0.798;entryDx=0;entryDy=0;entryPerimeter=0;exitX=-0.019;exitY=0.879;exitDx=0;exitDy=0;exitPerimeter=0;" parent="1" source="zQrTksdY_Bda0OnKajQu-10" target="XK-UsVdFbHBo1NIAttJW-3" edge="1">
                    <mxGeometry width="50" height="50" relative="1" as="geometry">
                        <mxPoint x="410" y="340" as="sourcePoint"/>
                        <mxPoint x="270" y="340" as="targetPoint"/>
                    </mxGeometry>
                </mxCell>
                <mxCell id="XK-UsVdFbHBo1NIAttJW-10" value="" style="rounded=0;whiteSpace=wrap;html=1;strokeColor=light-dark(#000000,#C7A52B);fillColor=light-dark(#000000,#C7A52B);" parent="1" vertex="1">
                    <mxGeometry x="584" y="380" width="20" height="40" as="geometry"/>
                </mxCell>
                <mxCell id="XK-UsVdFbHBo1NIAttJW-11" value="" style="endArrow=none;dashed=1;html=1;dashPattern=1 3;strokeWidth=2;rounded=0;entryX=0.5;entryY=1;entryDx=0;entryDy=0;exitX=0.5;exitY=0;exitDx=0;exitDy=0;strokeColor=light-dark(#000000,#C7A52B);" parent="1" source="PoSCY5o4h32BP8ZAVHjp-12" target="XK-UsVdFbHBo1NIAttJW-10" edge="1">
                    <mxGeometry width="50" height="50" relative="1" as="geometry">
                        <mxPoint x="604" y="390" as="sourcePoint"/>
                        <mxPoint x="604" y="325" as="targetPoint"/>
                    </mxGeometry>
                </mxCell>
            </root>
        </mxGraphModel>
    </diagram>
    <diagram id="CCVV7Z1Zs6AukwFvVYj6" name="Página-3">
        <mxGraphModel dx="1218" dy="559" grid="1" gridSize="10" guides="1" tooltips="1" connect="1" arrows="1" fold="1" page="1" pageScale="1" pageWidth="827" pageHeight="583" math="0" shadow="0">
            <root>
                <mxCell id="0"/>
                <mxCell id="1" parent="0"/>
                <mxCell id="beBQP2Q3XojH830KHNYp-1" value="Treasury Canister" style="rounded=1;whiteSpace=wrap;html=1;strokeColor=light-dark(#000000,#C7A52B);" parent="1" vertex="1">
                    <mxGeometry x="440" y="80" width="120" height="40" as="geometry"/>
                </mxCell>
                <mxCell id="beBQP2Q3XojH830KHNYp-2" value="Main Canister" style="rounded=1;whiteSpace=wrap;html=1;strokeColor=light-dark(#FFFFFF,#00FF00);" parent="1" vertex="1">
                    <mxGeometry x="290" y="80" width="120" height="40" as="geometry"/>
                </mxCell>
                <mxCell id="beBQP2Q3XojH830KHNYp-3" value="&amp;nbsp;Task Owner" style="rounded=1;whiteSpace=wrap;html=1;strokeColor=light-dark(#FFFFFF,#1641FF);" parent="1" vertex="1">
                    <mxGeometry x="40" y="80" width="120" height="40" as="geometry"/>
                </mxCell>
                <mxCell id="beBQP2Q3XojH830KHNYp-4" value="Ledger Canister" style="rounded=1;whiteSpace=wrap;html=1;strokeColor=light-dark(#000000,#4D9900);" parent="1" vertex="1">
                    <mxGeometry x="640" y="80" width="120" height="40" as="geometry"/>
                </mxCell>
                <mxCell id="beBQP2Q3XojH830KHNYp-5" value="" style="rounded=0;whiteSpace=wrap;html=1;fillColor=light-dark(#FFFFFF,#1641FF);" parent="1" vertex="1">
                    <mxGeometry x="90" y="160" width="20" height="190" as="geometry"/>
                </mxCell>
                <mxCell id="beBQP2Q3XojH830KHNYp-6" value="" style="rounded=0;whiteSpace=wrap;html=1;fillColor=light-dark(#FFFFFF,#00FF00);" parent="1" vertex="1">
                    <mxGeometry x="340" y="160" width="20" height="60" as="geometry"/>
                </mxCell>
                <mxCell id="beBQP2Q3XojH830KHNYp-7" value="" style="endArrow=classic;html=1;rounded=0;exitX=1.038;exitY=0.053;exitDx=0;exitDy=0;exitPerimeter=0;entryX=0.04;entryY=0.167;entryDx=0;entryDy=0;entryPerimeter=0;" parent="1" source="beBQP2Q3XojH830KHNYp-5" target="beBQP2Q3XojH830KHNYp-6" edge="1">
                    <mxGeometry width="50" height="50" relative="1" as="geometry">
                        <mxPoint x="360" y="230" as="sourcePoint"/>
                        <mxPoint x="300" y="170" as="targetPoint"/>
                    </mxGeometry>
                </mxCell>
                <mxCell id="beBQP2Q3XojH830KHNYp-8" value="&amp;nbsp;Accept Offer&amp;nbsp;" style="edgeLabel;html=1;align=center;verticalAlign=middle;resizable=0;points=[];" parent="beBQP2Q3XojH830KHNYp-7" vertex="1" connectable="0">
                    <mxGeometry x="-0.1586" y="-3" relative="1" as="geometry">
                        <mxPoint x="10" y="-3" as="offset"/>
                    </mxGeometry>
                </mxCell>
                <mxCell id="beBQP2Q3XojH830KHNYp-9" value="" style="endArrow=none;dashed=1;html=1;dashPattern=1 3;strokeWidth=2;rounded=0;entryX=0.5;entryY=1;entryDx=0;entryDy=0;exitX=0.5;exitY=0;exitDx=0;exitDy=0;strokeColor=light-dark(#FFFFFF,#00FF00);" parent="1" source="beBQP2Q3XojH830KHNYp-6" target="beBQP2Q3XojH830KHNYp-2" edge="1">
                    <mxGeometry width="50" height="50" relative="1" as="geometry">
                        <mxPoint x="400" y="230" as="sourcePoint"/>
                        <mxPoint x="450" y="180" as="targetPoint"/>
                    </mxGeometry>
                </mxCell>
                <mxCell id="beBQP2Q3XojH830KHNYp-10" value="" style="endArrow=none;dashed=1;html=1;dashPattern=1 3;strokeWidth=2;rounded=0;entryX=0.5;entryY=1;entryDx=0;entryDy=0;exitX=0.5;exitY=0;exitDx=0;exitDy=0;" parent="1" source="beBQP2Q3XojH830KHNYp-5" target="beBQP2Q3XojH830KHNYp-3" edge="1">
                    <mxGeometry width="50" height="50" relative="1" as="geometry">
                        <mxPoint x="290" y="170" as="sourcePoint"/>
                        <mxPoint x="290" y="130" as="targetPoint"/>
                    </mxGeometry>
                </mxCell>
                <mxCell id="beBQP2Q3XojH830KHNYp-11" value="" style="endArrow=none;dashed=1;html=1;dashPattern=1 3;strokeWidth=2;rounded=0;entryX=0.5;entryY=1;entryDx=0;entryDy=0;exitX=0.5;exitY=0;exitDx=0;exitDy=0;strokeColor=light-dark(#000000,#C7A52B);" parent="1" source="beBQP2Q3XojH830KHNYp-12" target="beBQP2Q3XojH830KHNYp-1" edge="1">
                    <mxGeometry width="50" height="50" relative="1" as="geometry">
                        <mxPoint x="500" y="160" as="sourcePoint"/>
                        <mxPoint x="410" y="180" as="targetPoint"/>
                    </mxGeometry>
                </mxCell>
                <mxCell id="beBQP2Q3XojH830KHNYp-12" value="" style="rounded=0;whiteSpace=wrap;html=1;strokeColor=light-dark(#000000,#C7A52B);fillColor=light-dark(#000000,#C7A52B);" parent="1" vertex="1">
                    <mxGeometry x="490" y="330" width="20" height="140" as="geometry"/>
                </mxCell>
                <mxCell id="beBQP2Q3XojH830KHNYp-13" value="" style="endArrow=classic;html=1;rounded=0;entryX=1.038;entryY=0.261;entryDx=0;entryDy=0;entryPerimeter=0;exitX=-0.1;exitY=0.827;exitDx=0;exitDy=0;exitPerimeter=0;" parent="1" source="beBQP2Q3XojH830KHNYp-6" target="beBQP2Q3XojH830KHNYp-5" edge="1">
                    <mxGeometry width="50" height="50" relative="1" as="geometry">
                        <mxPoint x="299" y="210" as="sourcePoint"/>
                        <mxPoint x="490" y="110" as="targetPoint"/>
                    </mxGeometry>
                </mxCell>
                <mxCell id="beBQP2Q3XojH830KHNYp-14" value="&amp;nbsp;Transaction Args&amp;nbsp;&lt;span style=&quot;background-color: light-dark(#ffffff, var(--ge-dark-color, #121212));&quot;&gt;to&amp;nbsp;&lt;/span&gt;&lt;div&gt;&lt;span style=&quot;background-color: light-dark(#ffffff, var(--ge-dark-color, #121212));&quot;&gt;Treasury Escrows subaccount&lt;/span&gt;&lt;/div&gt;" style="edgeLabel;html=1;align=center;verticalAlign=middle;resizable=0;points=[];" parent="beBQP2Q3XojH830KHNYp-13" vertex="1" connectable="0">
                    <mxGeometry x="0.0553" y="1" relative="1" as="geometry">
                        <mxPoint x="10" y="-1" as="offset"/>
                    </mxGeometry>
                </mxCell>
                <mxCell id="beBQP2Q3XojH830KHNYp-19" value="" style="endArrow=classic;html=1;rounded=0;exitX=1.04;exitY=0.42;exitDx=0;exitDy=0;exitPerimeter=0;entryX=0;entryY=0.178;entryDx=0;entryDy=0;entryPerimeter=0;" parent="1" edge="1">
                    <mxGeometry width="50" height="50" relative="1" as="geometry">
                        <mxPoint x="110.80000000000007" y="250.90000000000006" as="sourcePoint"/>
                        <mxPoint x="689.9999999999998" y="249.99999999999997" as="targetPoint"/>
                    </mxGeometry>
                </mxCell>
                <mxCell id="beBQP2Q3XojH830KHNYp-20" value="&amp;nbsp;Sign Transfer transaction&amp;nbsp;" style="edgeLabel;html=1;align=center;verticalAlign=middle;resizable=0;points=[];" parent="beBQP2Q3XojH830KHNYp-19" vertex="1" connectable="0">
                    <mxGeometry x="-0.0018" y="-1" relative="1" as="geometry">
                        <mxPoint x="-140" y="-1" as="offset"/>
                    </mxGeometry>
                </mxCell>
                <mxCell id="beBQP2Q3XojH830KHNYp-21" value="" style="rounded=0;whiteSpace=wrap;html=1;strokeColor=light-dark(#000000,#4D9900);fillColor=light-dark(#000000,#4D9900);" parent="1" vertex="1">
                    <mxGeometry x="690" y="230" width="20" height="50" as="geometry"/>
                </mxCell>
                <mxCell id="beBQP2Q3XojH830KHNYp-22" value="" style="endArrow=none;dashed=1;html=1;dashPattern=1 3;strokeWidth=2;rounded=0;entryX=0.5;entryY=1;entryDx=0;entryDy=0;exitX=0.5;exitY=0;exitDx=0;exitDy=0;strokeColor=light-dark(#000000,#4D9900);" parent="1" source="beBQP2Q3XojH830KHNYp-21" target="beBQP2Q3XojH830KHNYp-4" edge="1">
                    <mxGeometry width="50" height="50" relative="1" as="geometry">
                        <mxPoint x="699.8" y="180" as="sourcePoint"/>
                        <mxPoint x="699.8" y="140" as="targetPoint"/>
                    </mxGeometry>
                </mxCell>
                <mxCell id="beBQP2Q3XojH830KHNYp-23" value="" style="endArrow=none;dashed=1;html=1;dashPattern=1 3;strokeWidth=2;rounded=0;entryX=0.5;entryY=1;entryDx=0;entryDy=0;fillColor=light-dark(#FFFFFF,#14FF3F);strokeColor=light-dark(#FFFFFF,#00FF00);exitX=0.5;exitY=0;exitDx=0;exitDy=0;" parent="1" source="beBQP2Q3XojH830KHNYp-39" target="beBQP2Q3XojH830KHNYp-6" edge="1">
                    <mxGeometry width="50" height="50" relative="1" as="geometry">
                        <mxPoint x="350" y="300" as="sourcePoint"/>
                        <mxPoint x="360" y="260" as="targetPoint"/>
                    </mxGeometry>
                </mxCell>
                <mxCell id="beBQP2Q3XojH830KHNYp-24" value="" style="endArrow=classic;html=1;rounded=0;exitX=-0.038;exitY=0.786;exitDx=0;exitDy=0;entryX=1.067;entryY=0.578;entryDx=0;entryDy=0;entryPerimeter=0;exitPerimeter=0;" parent="1" source="beBQP2Q3XojH830KHNYp-21" target="beBQP2Q3XojH830KHNYp-5" edge="1">
                    <mxGeometry width="50" height="50" relative="1" as="geometry">
                        <mxPoint x="420" y="250" as="sourcePoint"/>
                        <mxPoint x="470" y="200" as="targetPoint"/>
                    </mxGeometry>
                </mxCell>
                <mxCell id="beBQP2Q3XojH830KHNYp-25" value="&amp;nbsp;Transfer response Block Index" style="edgeLabel;html=1;align=center;verticalAlign=middle;resizable=0;points=[];" parent="beBQP2Q3XojH830KHNYp-24" vertex="1" connectable="0">
                    <mxGeometry x="0.0343" y="1" relative="1" as="geometry">
                        <mxPoint x="-141" y="-1" as="offset"/>
                    </mxGeometry>
                </mxCell>
                <mxCell id="beBQP2Q3XojH830KHNYp-33" value="" style="endArrow=none;dashed=1;html=1;dashPattern=1 3;strokeWidth=2;rounded=0;entryX=0.5;entryY=1;entryDx=0;entryDy=0;strokeColor=light-dark(#000000,#4D9900);exitX=0.5;exitY=0;exitDx=0;exitDy=0;" parent="1" source="beBQP2Q3XojH830KHNYp-49" target="beBQP2Q3XojH830KHNYp-21" edge="1">
                    <mxGeometry width="50" height="50" relative="1" as="geometry">
                        <mxPoint x="700" y="290" as="sourcePoint"/>
                        <mxPoint x="480" y="260" as="targetPoint"/>
                    </mxGeometry>
                </mxCell>
                <mxCell id="beBQP2Q3XojH830KHNYp-34" value="&lt;font style=&quot;font-size: 18px;&quot;&gt;Accept Offer Flow&lt;/font&gt;" style="text;html=1;align=center;verticalAlign=middle;whiteSpace=wrap;rounded=0;" parent="1" vertex="1">
                    <mxGeometry x="314" y="10" width="200" height="30" as="geometry"/>
                </mxCell>
                <mxCell id="beBQP2Q3XojH830KHNYp-39" value="" style="rounded=0;whiteSpace=wrap;html=1;fillColor=light-dark(#FFFFFF,#00FF00);" parent="1" vertex="1">
                    <mxGeometry x="340" y="290" width="20" height="180" as="geometry"/>
                </mxCell>
                <mxCell id="beBQP2Q3XojH830KHNYp-41" value="" style="endArrow=classic;html=1;exitX=1;exitY=0.75;exitDx=0;exitDy=0;entryX=-0.031;entryY=0.058;entryDx=0;entryDy=0;entryPerimeter=0;" parent="1" source="beBQP2Q3XojH830KHNYp-5" target="beBQP2Q3XojH830KHNYp-39" edge="1">
                    <mxGeometry width="50" height="50" relative="1" as="geometry">
                        <mxPoint x="350" y="370" as="sourcePoint"/>
                        <mxPoint x="320" y="303" as="targetPoint"/>
                    </mxGeometry>
                </mxCell>
                <mxCell id="beBQP2Q3XojH830KHNYp-42" value="&lt;span style=&quot;font-family: monospace; font-size: 0px; text-align: start; background-color: rgb(27, 29, 30);&quot;&gt;%3CmxGraphModel%3E%3Croot%3E%3CmxCell%20id%3D%220%22%2F%3E%3CmxCell%20id%3D%221%22%20parent%3D%220%22%2F%3E%3CmxCell%20id%3D%222%22%20value%3D%22%22%20style%3D%22rounded%3D0%3BwhiteSpace%3Dwrap%3Bhtml%3D1%3BfillColor%3Dlight-dark(%23FFFFFF%2C%2300FF00)%3B%22%20vertex%3D%221%22%20parent%3D%221%22%3E%3CmxGeometry%20x%3D%22340%22%20y%3D%22390%22%20width%3D%2220%22%20height%3D%2270%22%20as%3D%22geometry%22%2F%3E%3C%2FmxCell%3E%3C%2Froot%3E%3C%2FmxGraphModel%3E&lt;/span&gt;" style="edgeLabel;html=1;align=center;verticalAlign=middle;resizable=0;points=[];" parent="beBQP2Q3XojH830KHNYp-41" vertex="1" connectable="0">
                    <mxGeometry x="0.1452" relative="1" as="geometry">
                        <mxPoint as="offset"/>
                    </mxGeometry>
                </mxCell>
                <mxCell id="beBQP2Q3XojH830KHNYp-43" value="&amp;nbsp;paymentNotification&amp;nbsp;" style="edgeLabel;html=1;align=center;verticalAlign=middle;resizable=0;points=[];" parent="beBQP2Q3XojH830KHNYp-41" vertex="1" connectable="0">
                    <mxGeometry x="-0.0652" y="1" relative="1" as="geometry">
                        <mxPoint as="offset"/>
                    </mxGeometry>
                </mxCell>
                <mxCell id="beBQP2Q3XojH830KHNYp-44" value="&lt;div style=&quot;color: rgb(204, 204, 204); background-color: rgb(31, 31, 31); font-family: &amp;quot;Droid Sans Mono&amp;quot;, &amp;quot;monospace&amp;quot;, monospace; font-size: 14px; line-height: 19px; white-space-collapse: preserve;&quot;&gt;&lt;br&gt;&lt;/div&gt;" style="edgeLabel;html=1;align=center;verticalAlign=middle;resizable=0;points=[];fillColor=light-dark(transparent,#DEEBFF);strokeColor=light-dark(transparent,#DEEBFF);" parent="beBQP2Q3XojH830KHNYp-41" vertex="1" connectable="0">
                    <mxGeometry x="-0.0434" y="-1" relative="1" as="geometry">
                        <mxPoint as="offset"/>
                    </mxGeometry>
                </mxCell>
                <mxCell id="beBQP2Q3XojH830KHNYp-45" value="" style="curved=1;endArrow=classic;html=1;rounded=0;exitX=1;exitY=0.25;exitDx=0;exitDy=0;entryX=1;entryY=0.75;entryDx=0;entryDy=0;" parent="1" edge="1">
                    <mxGeometry width="50" height="50" relative="1" as="geometry">
                        <mxPoint x="360" y="300" as="sourcePoint"/>
                        <mxPoint x="360" y="320" as="targetPoint"/>
                        <Array as="points">
                            <mxPoint x="400" y="300"/>
                            <mxPoint x="400" y="320"/>
                        </Array>
                    </mxGeometry>
                </mxCell>
                <mxCell id="beBQP2Q3XojH830KHNYp-46" value="Validate TransferArgs" style="edgeLabel;html=1;align=center;verticalAlign=middle;resizable=0;points=[];" parent="beBQP2Q3XojH830KHNYp-45" vertex="1" connectable="0">
                    <mxGeometry x="0.0022" y="-1" relative="1" as="geometry">
                        <mxPoint x="21" y="-10" as="offset"/>
                    </mxGeometry>
                </mxCell>
                <mxCell id="beBQP2Q3XojH830KHNYp-47" value="" style="endArrow=classic;html=1;exitX=1.039;exitY=0.279;exitDx=0;exitDy=0;exitPerimeter=0;" parent="1" source="beBQP2Q3XojH830KHNYp-39" edge="1">
                    <mxGeometry width="50" height="50" relative="1" as="geometry">
                        <mxPoint x="250" y="310" as="sourcePoint"/>
                        <mxPoint x="489" y="340" as="targetPoint"/>
                    </mxGeometry>
                </mxCell>
                <mxCell id="beBQP2Q3XojH830KHNYp-48" value="&amp;nbsp;createEscrow&amp;nbsp;" style="edgeLabel;html=1;align=center;verticalAlign=middle;resizable=0;points=[];" parent="beBQP2Q3XojH830KHNYp-47" vertex="1" connectable="0">
                    <mxGeometry x="0.0932" relative="1" as="geometry">
                        <mxPoint x="-17" as="offset"/>
                    </mxGeometry>
                </mxCell>
                <mxCell id="beBQP2Q3XojH830KHNYp-49" value="" style="rounded=0;whiteSpace=wrap;html=1;strokeColor=light-dark(#000000,#4D9900);fillColor=light-dark(#000000,#4D9900);" parent="1" vertex="1">
                    <mxGeometry x="690" y="330" width="20" height="70" as="geometry"/>
                </mxCell>
                <mxCell id="beBQP2Q3XojH830KHNYp-51" value="" style="endArrow=classic;html=1;exitX=1.067;exitY=0.142;exitDx=0;exitDy=0;entryX=-0.05;entryY=0.281;entryDx=0;entryDy=0;exitPerimeter=0;entryPerimeter=0;" parent="1" source="beBQP2Q3XojH830KHNYp-12" target="beBQP2Q3XojH830KHNYp-49" edge="1">
                    <mxGeometry width="50" height="50" relative="1" as="geometry">
                        <mxPoint x="500" y="370" as="sourcePoint"/>
                        <mxPoint x="550" y="320" as="targetPoint"/>
                    </mxGeometry>
                </mxCell>
                <mxCell id="beBQP2Q3XojH830KHNYp-52" value="&amp;nbsp;query_blocks&amp;nbsp;" style="edgeLabel;html=1;align=center;verticalAlign=middle;resizable=0;points=[];" parent="beBQP2Q3XojH830KHNYp-51" vertex="1" connectable="0">
                    <mxGeometry x="-0.0847" y="2" relative="1" as="geometry">
                        <mxPoint as="offset"/>
                    </mxGeometry>
                </mxCell>
                <mxCell id="beBQP2Q3XojH830KHNYp-53" value="" style="endArrow=classic;html=1;exitX=0;exitY=0.5;exitDx=0;exitDy=0;entryX=0.983;entryY=0.356;entryDx=0;entryDy=0;entryPerimeter=0;" parent="1" target="beBQP2Q3XojH830KHNYp-12" edge="1">
                    <mxGeometry width="50" height="50" relative="1" as="geometry">
                        <mxPoint x="690" y="380" as="sourcePoint"/>
                        <mxPoint x="530" y="380" as="targetPoint"/>
                    </mxGeometry>
                </mxCell>
                <mxCell id="beBQP2Q3XojH830KHNYp-54" value="&amp;nbsp;Blocks&amp;nbsp;" style="edgeLabel;html=1;align=center;verticalAlign=middle;resizable=0;points=[];" parent="beBQP2Q3XojH830KHNYp-53" vertex="1" connectable="0">
                    <mxGeometry x="0.2722" y="1" relative="1" as="geometry">
                        <mxPoint x="14" as="offset"/>
                    </mxGeometry>
                </mxCell>
                <mxCell id="beBQP2Q3XojH830KHNYp-55" value="" style="curved=1;endArrow=classic;html=1;rounded=0;exitX=1;exitY=0.25;exitDx=0;exitDy=0;entryX=1;entryY=0.75;entryDx=0;entryDy=0;" parent="1" edge="1">
                    <mxGeometry width="50" height="50" relative="1" as="geometry">
                        <mxPoint x="510" y="410" as="sourcePoint"/>
                        <mxPoint x="510" y="430" as="targetPoint"/>
                        <Array as="points">
                            <mxPoint x="550" y="410"/>
                            <mxPoint x="550" y="430"/>
                        </Array>
                    </mxGeometry>
                </mxCell>
                <mxCell id="beBQP2Q3XojH830KHNYp-56" value="Verify Transaction" style="edgeLabel;html=1;align=center;verticalAlign=middle;resizable=0;points=[];" parent="beBQP2Q3XojH830KHNYp-55" vertex="1" connectable="0">
                    <mxGeometry x="0.0022" y="-1" relative="1" as="geometry">
                        <mxPoint x="41" y="-10" as="offset"/>
                    </mxGeometry>
                </mxCell>
                <mxCell id="beBQP2Q3XojH830KHNYp-57" value="" style="endArrow=classic;html=1;exitX=-0.02;exitY=0.785;exitDx=0;exitDy=0;exitPerimeter=0;entryX=1.038;entryY=0.835;entryDx=0;entryDy=0;entryPerimeter=0;" parent="1" source="beBQP2Q3XojH830KHNYp-12" target="beBQP2Q3XojH830KHNYp-39" edge="1">
                    <mxGeometry width="50" height="50" relative="1" as="geometry">
                        <mxPoint x="400" y="460" as="sourcePoint"/>
                        <mxPoint x="380" y="440" as="targetPoint"/>
                    </mxGeometry>
                </mxCell>
                <mxCell id="beBQP2Q3XojH830KHNYp-58" value="Text" style="edgeLabel;html=1;align=center;verticalAlign=middle;resizable=0;points=[];" parent="beBQP2Q3XojH830KHNYp-57" vertex="1" connectable="0">
                    <mxGeometry x="0.0036" relative="1" as="geometry">
                        <mxPoint as="offset"/>
                    </mxGeometry>
                </mxCell>
            </root>
        </mxGraphModel>
    </diagram>
</mxfile>